<?xml version="1.0" encoding="UTF-8"?><svg id="Layer_2" xmlns="http://www.w3.org/2000/svg" viewBox="0 0 81.02 70.45"><g id="Layer_1-2"><path d="m75.05,6.16c-4.11-4.11-9.49-6.16-14.88-6.16-3.27,0-6.04.53-8.96,1.99-2.68,1.35-4.7,2.73-6.71,4.92-2.63,2.87-3.99,5.83-3.99,5.83,0,0-1.36-2.96-3.99-5.83-2.01-2.19-4.03-3.57-6.71-4.92-2.92-1.47-5.69-1.99-8.96-1.99-5.39,0-10.77,2.05-14.88,6.16C.32,11.81-1.25,20.27.97,27.94c2.11,7.29,9.76,15.74,15.76,21.74,7.48,7.48,23.78,20.77,23.78,20.77,0,0,16.3-13.29,23.78-20.77,6-6,13.65-14.45,15.76-21.74,2.23-7.67.65-16.13-5-21.78Z"/></g></svg>