<?xml version="1.0" encoding="UTF-8"?><svg id="Layer_2" xmlns="http://www.w3.org/2000/svg" viewBox="0 0 168.78 177.46"><defs><style>.cls-1{fill:#fff;stroke:#000;stroke-miterlimit:10;}</style></defs><g id="Layer_1-2"><polygon class="cls-1" points="84.39 1.77 97.83 47.38 135.5 18.38 119.57 63.17 167.09 61.86 127.87 88.73 167.09 115.6 119.57 114.29 135.5 159.09 97.83 130.08 84.39 175.69 70.95 130.08 33.27 159.09 49.21 114.29 1.68 115.6 40.91 88.73 1.68 61.86 49.21 63.17 33.27 18.38 70.95 47.38 84.39 1.77"/><path d="m77.37,79.59v4.72c0,.77,1.19.77,1.19,0v-4.72c0-.77-1.19-.77-1.19,0h0Z"/><path d="m90.22,79.59v4.72c0,.77,1.19.77,1.19,0v-4.72c0-.77-1.19-.77-1.19,0h0Z"/><path d="m67.31,93.95c6.9,10.22,21.97,9.36,30.71,2.14,2.88-2.37,5.14-5.41,6.45-8.91.27-.72-.88-1.03-1.15-.32-2.68,7.14-9.67,12.12-17.08,13.28-6.7,1.05-13.98-.99-17.91-6.8-.43-.63-1.46-.04-1.03.6h0Z"/></g></svg>